# Aspose.3D Wavefront OBJ Exporter
# Copyright 2004-2023 Aspose Pty Ltd.
# File created: 12/23/2023 04:33:33

g obj_30964604

#
# object obj_30964604
#

v 150 20 99.99999
v 570 20 30.000002
v 30.000002 20 30.000002
v 150 20 400
v 120.00001 20 400
v 30.000002 20 500
v 120.00001 20 99.99999
v 570 20 500
v 450.00003 20 400
v 450.00003 20 99.99999
v 480.00003 20 99.99999
v 480.00003 20 400
v 600 320 0
v 600 320 500
v 600 0 0
v 600 0 500
v 0 320 0
v 0 0 0
v 0 320 500
v 0 0 500
v 30.000002 320 500
v 570 320 500
v 30.000002 320 30.000002
v 200.00002 150 30.000002
v 190.00002 152.67949 30.000002
v 382.6795 160 30.000002
v 380 170 30.000002
v 220.00002 170 30.000002
v 182.6795 160 30.000002
v 180.00002 170 30.000002
v 182.6795 180 30.000002
v 217.32051 180 30.000002
v 190.00002 187.32051 30.000002
v 200.00002 190 30.000002
v 570 320 30.000002
v 210.00002 187.32051 30.000002
v 410 152.67949 30.000002
v 400 150 30.000002
v 210.00002 152.67949 30.000002
v 217.32051 160 30.000002
v 390.00003 152.67949 30.000002
v 410 187.32051 30.000002
v 417.32053 180 30.000002
v 420 170 30.000002
v 417.32053 160 30.000002
v 382.6795 180 30.000002
v 390.00003 187.32051 30.000002
v 400 190 30.000002
v 208.66026 175 30.100002
v 217.32051 180 30.100002
v 205.00002 178.66026 30.100002
v 210.00002 187.32051 30.100002
v 200.00002 180 30.100002
v 200.00002 190 30.100002
v 195.00002 178.66026 30.100002
v 190.00002 187.32051 30.100002
v 191.33977 175 30.100002
v 182.6795 180 30.100002
v 190.00002 170 30.100002
v 180.00002 170 30.100002
v 191.33977 165 30.100002
v 182.6795 160 30.100002
v 195.00002 161.33975 30.100002
v 190.00002 152.67949 30.100002
v 200.00002 160 30.100002
v 200.00002 150 30.100002
v 205.00002 161.33975 30.100002
v 210.00002 152.67949 30.100002
v 208.66026 165 30.100002
v 217.32051 160 30.100002
v 210.00002 170 30.100002
v 220.00002 170 30.100002
v 190.00002 170 30.000002
v 191.33977 175 30.000002
v 195.00002 178.66026 30.000002
v 200.00002 180 30.000002
v 205.00002 178.66026 30.000002
v 208.66026 175 30.000002
v 210.00002 170 30.000002
v 208.66026 165 30.000002
v 205.00002 161.33975 30.000002
v 200.00002 160 30.000002
v 195.00002 161.33975 30.000002
v 191.33977 165 30.000002
v 200.00002 170 30.000002
v 408.66025 175 30.100002
v 417.32053 180 30.100002
v 405 178.66026 30.100002
v 410 187.32051 30.100002
v 400 180 30.100002
v 400 190 30.100002
v 395 178.66026 30.100002
v 390.00003 187.32051 30.100002
v 391.33975 175 30.100002
v 382.6795 180 30.100002
v 390.00003 170 30.100002
v 380 170 30.100002
v 391.33975 165 30.100002
v 382.6795 160 30.100002
v 395 161.33975 30.100002
v 390.00003 152.67949 30.100002
v 400 160 30.100002
v 400 150 30.100002
v 405 161.33975 30.100002
v 410 152.67949 30.100002
v 408.66025 165 30.100002
v 417.32053 160 30.100002
v 410 170 30.100002
v 420 170 30.100002
v 390.00003 170 30.000002
v 391.33975 175 30.000002
v 395 178.66026 30.000002
v 400 180 30.000002
v 405 178.66026 30.000002
v 408.66025 175 30.000002
v 410 170 30.000002
v 408.66025 165 30.000002
v 405 161.33975 30.000002
v 400 160 30.000002
v 395 161.33975 30.000002
v 391.33975 165 30.000002
v 400 170 30.000002
v 480.00003 170 99.99999
v 480.00003 170 400
v 150 140 99.99999
v 120.00001 170 99.99999
v 450.00003 140 99.99999
v 120.00001 170 400
v 450.00003 140 400
v 150 140 400
# 130 vertices

vn 0 1 0
vn 1 0 0
vn 0 0 -1
vn -1 0 0
vn 0 0 1
vn 0 -1 0
vn -0.96592593 0.25881872 0
vn -0.70710677 0.70710677 0
vn -0.2588182 0.96592605 0
vn 0.2588182 0.96592605 0
vn 0.70710677 0.70710677 0
vn 0.96592575 0.25881937 0
vn 0.96592575 -0.25881937 0
vn 0.70710677 -0.70710677 0
vn 0.2588182 -0.96592605 0
vn -0.2588182 -0.96592605 0
vn -0.70710677 -0.70710677 0
vn -0.96592593 -0.25881872 0
vn 0.96592563 -0.25881973 0
vn 0.7071075 -0.70710605 0
vn 0.25881973 -0.96592563 0
vn -0.25881937 -0.96592575 0
vn -0.7071075 -0.70710605 0
vn -0.965926 -0.2588184 0
vn -0.965926 0.2588184 0
vn -0.7071075 0.70710605 0
vn -0.25881937 0.96592575 0
vn 0.25881973 0.96592563 0
vn 0.7071075 0.70710605 0
vn 0.96592563 0.25881973 0
vn -0.96592575 0.25881937 0
vn 0.96592593 0.25881872 0
vn 0.96592593 -0.25881872 0
vn -0.96592575 -0.25881937 0
vn 0.965926 -0.2588184 0
vn 0.25881937 -0.96592575 0
vn -0.25881973 -0.96592563 0
vn -0.96592563 -0.25881973 0
vn -0.96592563 0.25881973 0
vn -0.25881973 0.96592563 0
vn 0.25881937 0.96592575 0
vn 0.965926 0.2588184 0
# 42 vertex normals

s 1
f 1//1 2//1 3//1
f 4//1 5//1 6//1
f 6//1 5//1 3//1
f 3//1 5//1 7//1
f 3//1 7//1 1//1
f 6//1 8//1 4//1
f 4//1 8//1 9//1
f 4//1 9//1 1//1
f 1//1 9//1 10//1
f 1//1 10//1 2//1
f 2//1 10//1 11//1
f 2//1 11//1 8//1
f 8//1 11//1 12//1
f 8//1 12//1 9//1
f 13//2 14//2 15//2
f 15//2 14//2 16//2
f 17//3 13//3 18//3
f 18//3 13//3 15//3
f 19//4 17//4 20//4
f 20//4 17//4 18//4
f 21//5 19//5 6//5
f 6//5 19//5 20//5
f 6//5 20//5 8//5
f 8//5 20//5 16//5
f 8//5 16//5 22//5
f 22//5 16//5 14//5
f 20//6 18//6 16//6
f 16//6 18//6 15//6
f 23//2 21//2 3//2
f 3//2 21//2 6//2
f 24//5 25//5 3//5
f 26//5 27//5 28//5
f 25//5 29//5 3//5
f 3//5 29//5 30//5
f 3//5 30//5 23//5
f 23//5 30//5 31//5
f 28//5 27//5 32//5
f 31//5 33//5 23//5
f 23//5 33//5 34//5
f 23//5 34//5 35//5
f 35//5 34//5 36//5
f 35//5 36//5 32//5
f 2//5 37//5 38//5
f 24//5 3//5 39//5
f 39//5 3//5 2//5
f 39//5 2//5 40//5
f 40//5 2//5 38//5
f 40//5 38//5 28//5
f 28//5 38//5 41//5
f 28//5 41//5 26//5
f 42//5 43//5 35//5
f 35//5 43//5 44//5
f 35//5 44//5 2//5
f 2//5 44//5 45//5
f 2//5 45//5 37//5
f 27//5 46//5 32//5
f 32//5 46//5 47//5
f 32//5 47//5 35//5
f 35//5 47//5 48//5
f 35//5 48//5 42//5
f 22//4 35//4 8//4
f 8//4 35//4 2//4
f 22//1 14//1 35//1
f 35//1 14//1 13//1
f 35//1 13//1 23//1
f 23//1 13//1 17//1
f 23//1 17//1 21//1
f 21//1 17//1 19//1
f 49//5 50//5 51//5
f 51//5 50//5 52//5
f 51//5 52//5 53//5
f 53//5 52//5 54//5
f 53//5 54//5 55//5
f 55//5 54//5 56//5
f 55//5 56//5 57//5
f 57//5 56//5 58//5
f 57//5 58//5 59//5
f 59//5 58//5 60//5
f 59//5 60//5 61//5
f 61//5 60//5 62//5
f 61//5 62//5 63//5
f 63//5 62//5 64//5
f 63//5 64//5 65//5
f 65//5 64//5 66//5
f 65//5 66//5 67//5
f 67//5 66//5 68//5
f 67//5 68//5 69//5
f 69//5 68//5 70//5
f 69//5 70//5 71//5
f 71//5 70//5 72//5
f 71//5 72//5 49//5
f 49//5 72//5 50//5
f 30//7 58//7 31//7
f 31//8 58//8 56//8
f 31//8 56//8 33//8
f 33//9 56//9 54//9
f 33//9 54//9 34//9
f 34//10 54//10 52//10
f 34//10 52//10 36//10
f 36//11 52//11 50//11
f 36//11 50//11 32//11
f 32//12 50//12 72//12
f 32//12 72//12 28//12
f 28//13 72//13 70//13
f 28//13 70//13 40//13
f 40//14 70//14 68//14
f 40//14 68//14 39//14
f 39//15 68//15 66//15
f 39//15 66//15 24//15
f 24//16 66//16 64//16
f 24//16 64//16 25//16
f 25//17 64//17 62//17
f 25//17 62//17 29//17
f 29//18 62//18 60//18
f 29//18 60//18 30//18
f 30//7 60//7 58//7
f 59//19 73//19 57//19
f 57//19 73//19 74//19
f 57//20 74//20 55//20
f 55//20 74//20 75//20
f 55//21 75//21 53//21
f 53//21 75//21 76//21
f 53//22 76//22 51//22
f 51//22 76//22 77//22
f 51//23 77//23 49//23
f 49//23 77//23 78//23
f 49//24 78//24 71//24
f 71//24 78//24 79//24
f 71//25 79//25 69//25
f 69//25 79//25 80//25
f 69//26 80//26 67//26
f 67//26 80//26 81//26
f 67//27 81//27 65//27
f 65//27 81//27 82//27
f 65//28 82//28 63//28
f 63//28 82//28 83//28
f 63//29 83//29 61//29
f 61//29 83//29 84//29
f 61//30 84//30 59//30
f 59//30 84//30 73//30
f 81//5 80//5 85//5
f 85//5 80//5 79//5
f 85//5 79//5 78//5
f 84//5 83//5 85//5
f 85//5 83//5 82//5
f 85//5 82//5 81//5
f 75//5 74//5 85//5
f 85//5 74//5 73//5
f 85//5 73//5 84//5
f 78//5 77//5 85//5
f 85//5 77//5 76//5
f 85//5 76//5 75//5
f 86//5 87//5 88//5
f 88//5 87//5 89//5
f 88//5 89//5 90//5
f 90//5 89//5 91//5
f 90//5 91//5 92//5
f 92//5 91//5 93//5
f 92//5 93//5 94//5
f 94//5 93//5 95//5
f 94//5 95//5 96//5
f 96//5 95//5 97//5
f 96//5 97//5 98//5
f 98//5 97//5 99//5
f 98//5 99//5 100//5
f 100//5 99//5 101//5
f 100//5 101//5 102//5
f 102//5 101//5 103//5
f 102//5 103//5 104//5
f 104//5 103//5 105//5
f 104//5 105//5 106//5
f 106//5 105//5 107//5
f 106//5 107//5 108//5
f 108//5 107//5 109//5
f 108//5 109//5 86//5
f 86//5 109//5 87//5
f 27//31 95//31 46//31
f 46//8 95//8 93//8
f 46//8 93//8 47//8
f 47//9 93//9 91//9
f 47//9 91//9 48//9
f 48//10 91//10 89//10
f 48//10 89//10 42//10
f 42//11 89//11 87//11
f 42//11 87//11 43//11
f 43//32 87//32 109//32
f 43//32 109//32 44//32
f 44//33 109//33 107//33
f 44//33 107//33 45//33
f 45//14 107//14 105//14
f 45//14 105//14 37//14
f 37//15 105//15 103//15
f 37//15 103//15 38//15
f 38//16 103//16 101//16
f 38//16 101//16 41//16
f 41//17 101//17 99//17
f 41//17 99//17 26//17
f 26//34 99//34 97//34
f 26//34 97//34 27//34
f 27//31 97//31 95//31
f 96//35 110//35 94//35
f 94//35 110//35 111//35
f 94//20 111//20 92//20
f 92//20 111//20 112//20
f 92//36 112//36 90//36
f 90//36 112//36 113//36
f 90//37 113//37 88//37
f 88//37 113//37 114//37
f 88//23 114//23 86//23
f 86//23 114//23 115//23
f 86//38 115//38 108//38
f 108//38 115//38 116//38
f 108//39 116//39 106//39
f 106//39 116//39 117//39
f 106//26 117//26 104//26
f 104//26 117//26 118//26
f 104//40 118//40 102//40
f 102//40 118//40 119//40
f 102//41 119//41 100//41
f 100//41 119//41 120//41
f 100//29 120//29 98//29
f 98//29 120//29 121//29
f 98//42 121//42 96//42
f 96//42 121//42 110//42
f 112//5 111//5 122//5
f 122//5 111//5 110//5
f 122//5 110//5 121//5
f 115//5 114//5 122//5
f 122//5 114//5 113//5
f 122//5 113//5 112//5
f 118//5 117//5 122//5
f 122//5 117//5 116//5
f 122//5 116//5 115//5
f 121//5 120//5 122//5
f 122//5 120//5 119//5
f 122//5 119//5 118//5
f 123//2 124//2 11//2
f 11//2 124//2 12//2
f 1//3 7//3 125//3
f 125//3 7//3 126//3
f 125//3 126//3 127//3
f 127//3 126//3 123//3
f 127//3 123//3 10//3
f 10//3 123//3 11//3
f 128//4 126//4 5//4
f 5//4 126//4 7//4
f 9//5 12//5 129//5
f 129//5 12//5 124//5
f 129//5 124//5 130//5
f 130//5 124//5 128//5
f 130//5 128//5 4//5
f 4//5 128//5 5//5
f 126//1 128//1 123//1
f 123//1 128//1 124//1
f 9//4 129//4 10//4
f 10//4 129//4 127//4
f 129//6 130//6 127//6
f 127//6 130//6 125//6
f 130//2 4//2 125//2
f 125//2 4//2 1//2
#260 polygons

